<mxfile host="app.diagrams.net" modified="2024-01-19T06:13:48.515Z" agent="Mozilla/5.0 (Macintosh; Intel Mac OS X 10_15_7) AppleWebKit/537.36 (KHTML, like Gecko) Chrome/120.0.0.0 Safari/537.36" etag="e7hLhRDVsnFl7GrYL4mi" version="22.1.21" type="github">
  <diagram name="Page-1" id="Mn7Etox9gH9IRfaGNVI1">
    <mxGraphModel dx="1224" dy="1146" grid="1" gridSize="10" guides="1" tooltips="1" connect="1" arrows="1" fold="1" page="1" pageScale="1" pageWidth="850" pageHeight="1100" math="0" shadow="0">
      <root>
        <mxCell id="0" />
        <mxCell id="1" parent="0" />
        <mxCell id="nfQbqALKgaYt02U9sbsB-1" style="edgeStyle=orthogonalEdgeStyle;rounded=0;orthogonalLoop=1;jettySize=auto;html=1;" edge="1" parent="1" source="nfQbqALKgaYt02U9sbsB-2" target="nfQbqALKgaYt02U9sbsB-8">
          <mxGeometry relative="1" as="geometry" />
        </mxCell>
        <mxCell id="nfQbqALKgaYt02U9sbsB-2" value="抓取" style="rounded=1;whiteSpace=wrap;html=1;" vertex="1" parent="1">
          <mxGeometry x="1270" y="925" width="120" height="60" as="geometry" />
        </mxCell>
        <mxCell id="nfQbqALKgaYt02U9sbsB-3" style="edgeStyle=orthogonalEdgeStyle;rounded=0;orthogonalLoop=1;jettySize=auto;html=1;entryX=0.5;entryY=0;entryDx=0;entryDy=0;" edge="1" parent="1" source="nfQbqALKgaYt02U9sbsB-4" target="nfQbqALKgaYt02U9sbsB-2">
          <mxGeometry relative="1" as="geometry" />
        </mxCell>
        <mxCell id="nfQbqALKgaYt02U9sbsB-4" value="抓取探针" style="rounded=1;whiteSpace=wrap;html=1;" vertex="1" parent="1">
          <mxGeometry x="1270" y="820" width="120" height="60" as="geometry" />
        </mxCell>
        <mxCell id="nfQbqALKgaYt02U9sbsB-5" value="根据失效时间戳、版本ID、数据行数判断是否具备抓取的必要" style="text;html=1;strokeColor=none;fillColor=none;align=center;verticalAlign=middle;whiteSpace=wrap;rounded=0;" vertex="1" parent="1">
          <mxGeometry x="1405.46" y="835" width="354.54" height="30" as="geometry" />
        </mxCell>
        <mxCell id="nfQbqALKgaYt02U9sbsB-6" style="edgeStyle=orthogonalEdgeStyle;rounded=0;orthogonalLoop=1;jettySize=auto;html=1;strokeColor=none;curved=1;" edge="1" parent="1">
          <mxGeometry relative="1" as="geometry">
            <mxPoint x="1330" y="1030" as="targetPoint" />
            <mxPoint x="1410" y="1120" as="sourcePoint" />
            <Array as="points">
              <mxPoint x="1410" y="1030" />
            </Array>
          </mxGeometry>
        </mxCell>
        <mxCell id="nfQbqALKgaYt02U9sbsB-7" style="edgeStyle=orthogonalEdgeStyle;rounded=0;orthogonalLoop=1;jettySize=auto;html=1;" edge="1" parent="1" source="nfQbqALKgaYt02U9sbsB-8" target="nfQbqALKgaYt02U9sbsB-11">
          <mxGeometry relative="1" as="geometry" />
        </mxCell>
        <mxCell id="nfQbqALKgaYt02U9sbsB-8" value="分页N...." style="ellipse;whiteSpace=wrap;html=1;" vertex="1" parent="1">
          <mxGeometry x="1270" y="1030" width="120" height="80" as="geometry" />
        </mxCell>
        <mxCell id="nfQbqALKgaYt02U9sbsB-9" value="拉取分页原始数据，保存原始响应JSON&lt;br&gt;支持断点续爬" style="text;html=1;strokeColor=none;fillColor=none;align=center;verticalAlign=middle;whiteSpace=wrap;rounded=0;" vertex="1" parent="1">
          <mxGeometry x="1410" y="1055" width="244.54" height="30" as="geometry" />
        </mxCell>
        <mxCell id="nfQbqALKgaYt02U9sbsB-10" style="edgeStyle=orthogonalEdgeStyle;rounded=0;orthogonalLoop=1;jettySize=auto;html=1;entryX=0.5;entryY=0;entryDx=0;entryDy=0;" edge="1" parent="1" source="nfQbqALKgaYt02U9sbsB-11" target="nfQbqALKgaYt02U9sbsB-13">
          <mxGeometry relative="1" as="geometry" />
        </mxCell>
        <mxCell id="nfQbqALKgaYt02U9sbsB-11" value="合并清洗" style="rounded=1;whiteSpace=wrap;html=1;" vertex="1" parent="1">
          <mxGeometry x="1270" y="1160" width="120" height="60" as="geometry" />
        </mxCell>
        <mxCell id="nfQbqALKgaYt02U9sbsB-12" style="edgeStyle=orthogonalEdgeStyle;rounded=0;orthogonalLoop=1;jettySize=auto;html=1;" edge="1" parent="1" source="nfQbqALKgaYt02U9sbsB-13" target="nfQbqALKgaYt02U9sbsB-15">
          <mxGeometry relative="1" as="geometry" />
        </mxCell>
        <mxCell id="nfQbqALKgaYt02U9sbsB-13" value="数据验证" style="rounded=1;whiteSpace=wrap;html=1;" vertex="1" parent="1">
          <mxGeometry x="1270" y="1270" width="120" height="60" as="geometry" />
        </mxCell>
        <mxCell id="nfQbqALKgaYt02U9sbsB-14" style="edgeStyle=orthogonalEdgeStyle;rounded=0;orthogonalLoop=1;jettySize=auto;html=1;entryX=0.5;entryY=0;entryDx=0;entryDy=0;" edge="1" parent="1" source="nfQbqALKgaYt02U9sbsB-15" target="nfQbqALKgaYt02U9sbsB-17">
          <mxGeometry relative="1" as="geometry" />
        </mxCell>
        <mxCell id="nfQbqALKgaYt02U9sbsB-15" value="存储文件" style="rounded=1;whiteSpace=wrap;html=1;" vertex="1" parent="1">
          <mxGeometry x="1270" y="1380" width="120" height="60" as="geometry" />
        </mxCell>
        <mxCell id="nfQbqALKgaYt02U9sbsB-16" style="edgeStyle=orthogonalEdgeStyle;rounded=0;orthogonalLoop=1;jettySize=auto;html=1;" edge="1" parent="1" source="nfQbqALKgaYt02U9sbsB-17" target="nfQbqALKgaYt02U9sbsB-18">
          <mxGeometry relative="1" as="geometry" />
        </mxCell>
        <mxCell id="nfQbqALKgaYt02U9sbsB-17" value="新旧数据对比" style="rounded=1;whiteSpace=wrap;html=1;" vertex="1" parent="1">
          <mxGeometry x="1270" y="1500" width="120" height="60" as="geometry" />
        </mxCell>
        <mxCell id="nfQbqALKgaYt02U9sbsB-18" value="汇总报告" style="rounded=1;whiteSpace=wrap;html=1;" vertex="1" parent="1">
          <mxGeometry x="1270" y="1620" width="120" height="60" as="geometry" />
        </mxCell>
        <mxCell id="nfQbqALKgaYt02U9sbsB-19" value="Pandera" style="text;html=1;strokeColor=none;fillColor=none;align=center;verticalAlign=middle;whiteSpace=wrap;rounded=0;" vertex="1" parent="1">
          <mxGeometry x="1390" y="1285" width="114.54" height="30" as="geometry" />
        </mxCell>
        <mxCell id="nfQbqALKgaYt02U9sbsB-20" value="格式演进，Excel -&amp;gt; Parquet" style="text;html=1;strokeColor=none;fillColor=none;align=center;verticalAlign=middle;whiteSpace=wrap;rounded=0;" vertex="1" parent="1">
          <mxGeometry x="1405.46" y="1390" width="184.54" height="30" as="geometry" />
        </mxCell>
        <mxCell id="nfQbqALKgaYt02U9sbsB-21" value="总数，删除数，更新数，新增数" style="text;html=1;strokeColor=none;fillColor=none;align=center;verticalAlign=middle;whiteSpace=wrap;rounded=0;" vertex="1" parent="1">
          <mxGeometry x="1420" y="1515" width="184.54" height="30" as="geometry" />
        </mxCell>
      </root>
    </mxGraphModel>
  </diagram>
</mxfile>
